<svg width="256" height="256" viewBox="0 0 256 256" fill="none" xmlns="http://www.w3.org/2000/svg">
<circle cx="128" cy="128" r="128" fill="#247BA0"/>
<path d="M194.645 66.6942C184.756 63.724 173.782 67.0144 164.327 75.7952C159.912 79.8935 155.668 85.6922 153.571 90.4882C149.416 99.9582 149.587 109.364 154.007 116.096C156.51 119.911 159.829 122.228 163.791 122.962C166.568 123.476 170.731 123.445 173.758 122.886C181.79 121.421 189.703 116.587 195.735 109.466C197.801 107.023 198.719 105.711 200.462 102.664C203.819 96.85 205.451 92.138 205.809 87.3314C206.35 80.0192 204.144 73.7485 199.592 69.6304C198.337 68.5054 195.974 67.1091 194.645 66.6942ZM138.833 35.2079C133.534 33.2697 126.805 34.4462 120.962 38.3288C117.772 40.4436 115.432 42.8888 112.602 47.0694C111.356 48.8963 109.659 52.0012 108.765 54.0481C103.704 65.6699 103.488 77.7984 108.19 87.3685C109.13 89.2887 110.946 92.0193 112.342 93.5939C113.33 94.7093 113.615 94.9375 114.936 95.7807C116.695 96.8923 118.077 97.4657 119.941 97.869C122.828 98.495 125.528 98.4201 128.483 97.6272C134.335 96.0566 139.872 91.7891 144.213 85.5178C145.996 82.9276 148.087 78.7525 149.323 75.2535C154.37 61.0771 152.491 47.3384 144.367 38.8999C142.742 37.2246 140.826 35.942 138.833 35.2079ZM204.548 131.597C195.755 128.282 185.571 129.786 176.296 135.788C172.024 138.559 169.17 141.172 165.519 145.695C164.216 147.314 163.78 147.959 162.601 150.001C161.158 152.5 160.588 153.82 159.939 156.136C158.191 162.351 158.899 168.638 161.813 172.932C163.405 175.276 165.192 176.837 167.579 177.943C173.366 180.643 179.711 180.991 186.689 178.997C194.38 176.79 201.675 171.807 206.937 165.187C208.254 163.545 210.499 160.1 211.254 158.598C215.124 150.869 214.909 141.983 210.714 136.358C209.087 134.185 206.898 132.489 204.548 131.597ZM78.4685 63.0012C72.7406 60.8634 66.2387 61.9789 61.83 65.8726C60.269 67.2458 58.3808 69.4073 56.8937 71.5119C51.4955 79.143 49.0711 89.8845 50.5444 99.6409C51.6513 106.927 54.7983 113.341 59.6534 118.211C63.7418 122.301 68.7946 123.584 74.609 122.024C79.7984 120.631 84.2173 116.775 87.8724 110.445C89.2943 107.982 89.951 106.567 90.8367 104.035C93.8944 95.357 93.7809 85.2965 90.5318 76.8695C89.0389 72.9962 86.4696 68.7418 84.4327 66.781C82.8306 65.2313 80.5214 63.77 78.4685 63.0012ZM123.839 128.263C119.392 126.32 114.617 125.053 109.515 124.493C101.708 123.654 93.0639 124.766 86.3153 127.501C71.7481 133.41 59.2245 141.685 50.6661 151.047C50.1406 151.625 49.3128 152.476 48.8308 152.951C46.3411 155.406 44.5589 158.798 43.9317 162.296C42.9211 167.927 44.4706 173.643 48.0981 177.756C50.2667 180.209 54.2949 182.519 59.3133 184.167C62.577 185.25 65.1639 185.815 72.6826 187.096C83.1531 188.865 85.8955 189.631 92.0054 192.438C94.737 193.695 95.212 193.953 96.9243 195.118C101.31 198.082 104.348 201.166 109.649 208.006C114.346 214.065 116.995 217.405 117.72 218.144C124.948 225.585 135.272 227.525 141.979 222.699C144.921 220.57 147.763 215.98 149.242 210.923C150.675 206.001 151.586 197.188 151.311 190.735C150.547 172.514 148.789 161.616 145.062 151.936C141.555 142.848 137.495 137.156 131.15 132.483C129.366 131.165 125.909 129.169 123.839 128.263Z" fill="white"/>
</svg>
